<mxfile host="Electron" agent="Mozilla/5.0 (Windows NT 10.0; Win64; x64) AppleWebKit/537.36 (KHTML, like Gecko) draw.io/27.0.5 Chrome/134.0.6998.205 Electron/35.3.0 Safari/537.36" version="27.0.5">
  <diagram name="Page-1" id="cx-hjg-RENKBDJ7C8sbw">
    <mxGraphModel dx="1067" dy="931" grid="1" gridSize="10" guides="1" tooltips="1" connect="1" arrows="1" fold="1" page="1" pageScale="1" pageWidth="827" pageHeight="1169" math="0" shadow="0">
      <root>
        <mxCell id="0" />
        <mxCell id="1" parent="0" />
        <mxCell id="QYmhKUo41NAajOEhLeO6-1" value="" style="sketch=0;points=[[0.5,0,0],[1,0.5,0],[0.5,1,0],[0,0.5,0],[0.145,0.145,0],[0.8555,0.145,0],[0.855,0.8555,0],[0.145,0.855,0]];verticalLabelPosition=bottom;html=1;verticalAlign=top;aspect=fixed;align=center;pointerEvents=1;shape=mxgraph.cisco19.rect;prIcon=csr_1000v;fillColor=#FAFAFA;strokeColor=#005073;" parent="1" vertex="1">
          <mxGeometry x="330" y="300" width="50" height="50" as="geometry" />
        </mxCell>
        <mxCell id="QYmhKUo41NAajOEhLeO6-2" value="" style="sketch=0;points=[[0.5,0,0],[1,0.5,0],[0.5,1,0],[0,0.5,0],[0.145,0.145,0],[0.8555,0.145,0],[0.855,0.8555,0],[0.145,0.855,0]];verticalLabelPosition=bottom;html=1;verticalAlign=top;aspect=fixed;align=center;pointerEvents=1;shape=mxgraph.cisco19.rect;prIcon=csr_1000v;fillColor=#FAFAFA;strokeColor=#005073;" parent="1" vertex="1">
          <mxGeometry x="466.5" y="300" width="50" height="50" as="geometry" />
        </mxCell>
        <mxCell id="QYmhKUo41NAajOEhLeO6-4" value="" style="sketch=0;points=[[0.5,0,0],[1,0.5,0],[0.5,1,0],[0,0.5,0],[0.145,0.145,0],[0.8555,0.145,0],[0.855,0.8555,0],[0.145,0.855,0]];verticalLabelPosition=bottom;html=1;verticalAlign=top;aspect=fixed;align=center;pointerEvents=1;shape=mxgraph.cisco19.rect;prIcon=router;fillColor=#FAFAFA;strokeColor=#005073;" parent="1" vertex="1">
          <mxGeometry x="280" y="540" width="50" height="50" as="geometry" />
        </mxCell>
        <mxCell id="QYmhKUo41NAajOEhLeO6-5" value="" style="sketch=0;points=[[0.5,0,0],[1,0.5,0],[0.5,1,0],[0,0.5,0],[0.145,0.145,0],[0.8555,0.145,0],[0.855,0.8555,0],[0.145,0.855,0]];verticalLabelPosition=bottom;html=1;verticalAlign=top;aspect=fixed;align=center;pointerEvents=1;shape=mxgraph.cisco19.rect;prIcon=router;fillColor=#FAFAFA;strokeColor=#005073;" parent="1" vertex="1">
          <mxGeometry x="490" y="540" width="50" height="50" as="geometry" />
        </mxCell>
        <mxCell id="QYmhKUo41NAajOEhLeO6-6" value="" style="sketch=0;points=[[0.5,0,0],[1,0.5,0],[0.5,1,0],[0,0.5,0],[0.145,0.145,0],[0.8555,0.145,0],[0.855,0.8555,0],[0.145,0.855,0]];verticalLabelPosition=bottom;html=1;verticalAlign=top;aspect=fixed;align=center;pointerEvents=1;shape=mxgraph.cisco19.rect;prIcon=router;fillColor=#FAFAFA;strokeColor=#005073;" parent="1" vertex="1">
          <mxGeometry x="290" y="170" width="50" height="50" as="geometry" />
        </mxCell>
        <mxCell id="QYmhKUo41NAajOEhLeO6-7" value="" style="sketch=0;points=[[0.5,0,0],[1,0.5,0],[0.5,1,0],[0,0.5,0],[0.145,0.145,0],[0.8555,0.145,0],[0.855,0.8555,0],[0.145,0.855,0]];verticalLabelPosition=bottom;html=1;verticalAlign=top;aspect=fixed;align=center;pointerEvents=1;shape=mxgraph.cisco19.rect;prIcon=router;fillColor=#FAFAFA;strokeColor=#005073;" parent="1" vertex="1">
          <mxGeometry x="405" y="120" width="50" height="50" as="geometry" />
        </mxCell>
        <mxCell id="QYmhKUo41NAajOEhLeO6-8" value="" style="sketch=0;points=[[0.5,0,0],[1,0.5,0],[0.5,1,0],[0,0.5,0],[0.145,0.145,0],[0.8555,0.145,0],[0.855,0.8555,0],[0.145,0.855,0]];verticalLabelPosition=bottom;html=1;verticalAlign=top;aspect=fixed;align=center;pointerEvents=1;shape=mxgraph.cisco19.rect;prIcon=router;fillColor=#FAFAFA;strokeColor=#005073;" parent="1" vertex="1">
          <mxGeometry x="510" y="170" width="50" height="50" as="geometry" />
        </mxCell>
        <mxCell id="QYmhKUo41NAajOEhLeO6-14" value="" style="sketch=0;pointerEvents=1;shadow=0;dashed=0;html=1;strokeColor=none;fillColor=#DF8C42;labelPosition=center;verticalLabelPosition=bottom;verticalAlign=top;align=center;outlineConnect=0;shape=mxgraph.veeam2.firewall;points=[[0,0.5,0,0,0],[0.26,0,0,0,-1],[0.26,1,0,0,0],[0.74,0,0,0,-1],[0.74,1,0,0,0]];" parent="1" vertex="1">
          <mxGeometry x="405" y="420" width="34" height="34" as="geometry" />
        </mxCell>
        <mxCell id="QYmhKUo41NAajOEhLeO6-33" style="edgeStyle=orthogonalEdgeStyle;rounded=0;orthogonalLoop=1;jettySize=auto;html=1;exitX=0;exitY=0.75;exitDx=0;exitDy=0;exitPerimeter=0;curved=1;strokeColor=default;flowAnimation=0;shadow=0;endArrow=none;startFill=0;" parent="1" source="QYmhKUo41NAajOEhLeO6-15" target="QYmhKUo41NAajOEhLeO6-30" edge="1">
          <mxGeometry relative="1" as="geometry" />
        </mxCell>
        <mxCell id="QYmhKUo41NAajOEhLeO6-34" style="edgeStyle=orthogonalEdgeStyle;rounded=0;orthogonalLoop=1;jettySize=auto;html=1;exitX=1;exitY=0.5;exitDx=0;exitDy=0;exitPerimeter=0;curved=1;endArrow=none;startFill=0;" parent="1" source="QYmhKUo41NAajOEhLeO6-15" target="QYmhKUo41NAajOEhLeO6-14" edge="1">
          <mxGeometry relative="1" as="geometry" />
        </mxCell>
        <mxCell id="QYmhKUo41NAajOEhLeO6-45" style="edgeStyle=orthogonalEdgeStyle;rounded=0;orthogonalLoop=1;jettySize=auto;html=1;exitX=0;exitY=0.25;exitDx=0;exitDy=0;exitPerimeter=0;curved=1;endArrow=none;startFill=0;labelBackgroundColor=default;" parent="1" source="QYmhKUo41NAajOEhLeO6-15" target="QYmhKUo41NAajOEhLeO6-29" edge="1">
          <mxGeometry relative="1" as="geometry" />
        </mxCell>
        <mxCell id="QYmhKUo41NAajOEhLeO6-15" value="l" style="sketch=0;points=[[0,0.25,0,0,0],[0,0.5,0,0,0],[0,0.75,0,0,0],[0.015,0.015,0,0,0],[0.015,0.985,0,0,0],[0.25,0,0,0,0],[0.25,1,0,0,0],[0.5,0,0,0,0],[0.5,1,0,0,0],[0.75,0,0,0,0],[0.75,1,0,0,0],[0.985,0.015,0,0,0],[0.985,0.985,0,0,0],[1,0.25,0,0,0],[1,0.5,0,0,0],[1,0.75,0,0,0]];verticalLabelPosition=bottom;html=1;verticalAlign=top;aspect=fixed;align=center;pointerEvents=1;shape=mxgraph.cisco19.rect;prIcon=l2_switch;fillColor=#FAFAFA;strokeColor=#005073;" parent="1" vertex="1">
          <mxGeometry x="220" y="412" width="50" height="50" as="geometry" />
        </mxCell>
        <mxCell id="QYmhKUo41NAajOEhLeO6-16" value="" style="sketch=0;points=[[0.015,0.015,0],[0.985,0.015,0],[0.985,0.985,0],[0.015,0.985,0],[0.25,0,0],[0.5,0,0],[0.75,0,0],[1,0.25,0],[1,0.5,0],[1,0.75,0],[0.75,1,0],[0.5,1,0],[0.25,1,0],[0,0.75,0],[0,0.5,0],[0,0.25,0]];verticalLabelPosition=bottom;html=1;verticalAlign=top;aspect=fixed;align=center;pointerEvents=1;shape=mxgraph.cisco19.rect;prIcon=l3_switch;fillColor=#FAFAFA;strokeColor=#005073;" parent="1" vertex="1">
          <mxGeometry x="150" y="670" width="50" height="50" as="geometry" />
        </mxCell>
        <mxCell id="QYmhKUo41NAajOEhLeO6-17" value="" style="sketch=0;points=[[0.015,0.015,0],[0.985,0.015,0],[0.985,0.985,0],[0.015,0.985,0],[0.25,0,0],[0.5,0,0],[0.75,0,0],[1,0.25,0],[1,0.5,0],[1,0.75,0],[0.75,1,0],[0.5,1,0],[0.25,1,0],[0,0.75,0],[0,0.5,0],[0,0.25,0]];verticalLabelPosition=bottom;html=1;verticalAlign=top;aspect=fixed;align=center;pointerEvents=1;shape=mxgraph.cisco19.rect;prIcon=l3_switch;fillColor=#FAFAFA;strokeColor=#005073;" parent="1" vertex="1">
          <mxGeometry x="590" y="670" width="50" height="50" as="geometry" />
        </mxCell>
        <mxCell id="QYmhKUo41NAajOEhLeO6-62" style="edgeStyle=orthogonalEdgeStyle;rounded=0;orthogonalLoop=1;jettySize=auto;html=1;exitX=0.5;exitY=1;exitDx=0;exitDy=0;exitPerimeter=0;endArrow=none;startFill=0;" parent="1" source="QYmhKUo41NAajOEhLeO6-18" target="QYmhKUo41NAajOEhLeO6-23" edge="1">
          <mxGeometry relative="1" as="geometry" />
        </mxCell>
        <mxCell id="QYmhKUo41NAajOEhLeO6-18" value="" style="sketch=0;points=[[0.015,0.015,0],[0.985,0.015,0],[0.985,0.985,0],[0.015,0.985,0],[0.25,0,0],[0.5,0,0],[0.75,0,0],[1,0.25,0],[1,0.5,0],[1,0.75,0],[0.75,1,0],[0.5,1,0],[0.25,1,0],[0,0.75,0],[0,0.5,0],[0,0.25,0]];verticalLabelPosition=bottom;html=1;verticalAlign=top;aspect=fixed;align=center;pointerEvents=1;shape=mxgraph.cisco19.rect;prIcon=l2_switch;fillColor=#FAFAFA;strokeColor=#005073;" parent="1" vertex="1">
          <mxGeometry x="80" y="790" width="50" height="50" as="geometry" />
        </mxCell>
        <mxCell id="QYmhKUo41NAajOEhLeO6-63" style="edgeStyle=orthogonalEdgeStyle;rounded=0;orthogonalLoop=1;jettySize=auto;html=1;exitX=0.5;exitY=1;exitDx=0;exitDy=0;exitPerimeter=0;endArrow=none;startFill=0;" parent="1" source="nFP74qU7jgvlYta2bDjf-6" target="QYmhKUo41NAajOEhLeO6-24" edge="1">
          <mxGeometry relative="1" as="geometry" />
        </mxCell>
        <mxCell id="QYmhKUo41NAajOEhLeO6-19" value="" style="sketch=0;points=[[0.015,0.015,0],[0.985,0.015,0],[0.985,0.985,0],[0.015,0.985,0],[0.25,0,0],[0.5,0,0],[0.75,0,0],[1,0.25,0],[1,0.5,0],[1,0.75,0],[0.75,1,0],[0.5,1,0],[0.25,1,0],[0,0.75,0],[0,0.5,0],[0,0.25,0]];verticalLabelPosition=bottom;html=1;verticalAlign=top;aspect=fixed;align=center;pointerEvents=1;shape=mxgraph.cisco19.rect;prIcon=l2_switch;fillColor=#FAFAFA;strokeColor=#005073;" parent="1" vertex="1">
          <mxGeometry x="210" y="790" width="50" height="50" as="geometry" />
        </mxCell>
        <mxCell id="QYmhKUo41NAajOEhLeO6-71" style="edgeStyle=orthogonalEdgeStyle;rounded=0;orthogonalLoop=1;jettySize=auto;html=1;exitX=0.5;exitY=1;exitDx=0;exitDy=0;exitPerimeter=0;endArrow=none;startFill=0;" parent="1" source="nFP74qU7jgvlYta2bDjf-9" target="QYmhKUo41NAajOEhLeO6-25" edge="1">
          <mxGeometry relative="1" as="geometry" />
        </mxCell>
        <mxCell id="QYmhKUo41NAajOEhLeO6-20" value="" style="sketch=0;points=[[0.015,0.015,0],[0.985,0.015,0],[0.985,0.985,0],[0.015,0.985,0],[0.25,0,0],[0.5,0,0],[0.75,0,0],[1,0.25,0],[1,0.5,0],[1,0.75,0],[0.75,1,0],[0.5,1,0],[0.25,1,0],[0,0.75,0],[0,0.5,0],[0,0.25,0]];verticalLabelPosition=bottom;html=1;verticalAlign=top;aspect=fixed;align=center;pointerEvents=1;shape=mxgraph.cisco19.rect;prIcon=l2_switch;fillColor=#FAFAFA;strokeColor=#005073;" parent="1" vertex="1">
          <mxGeometry x="510" y="790" width="50" height="50" as="geometry" />
        </mxCell>
        <mxCell id="QYmhKUo41NAajOEhLeO6-74" style="edgeStyle=orthogonalEdgeStyle;rounded=0;orthogonalLoop=1;jettySize=auto;html=1;exitX=0.5;exitY=1;exitDx=0;exitDy=0;exitPerimeter=0;endArrow=none;startFill=0;" parent="1" source="nFP74qU7jgvlYta2bDjf-11" target="QYmhKUo41NAajOEhLeO6-26" edge="1">
          <mxGeometry relative="1" as="geometry" />
        </mxCell>
        <mxCell id="QYmhKUo41NAajOEhLeO6-21" value="" style="sketch=0;points=[[0.015,0.015,0],[0.985,0.015,0],[0.985,0.985,0],[0.015,0.985,0],[0.25,0,0],[0.5,0,0],[0.75,0,0],[1,0.25,0],[1,0.5,0],[1,0.75,0],[0.75,1,0],[0.5,1,0],[0.25,1,0],[0,0.75,0],[0,0.5,0],[0,0.25,0]];verticalLabelPosition=bottom;html=1;verticalAlign=top;aspect=fixed;align=center;pointerEvents=1;shape=mxgraph.cisco19.rect;prIcon=l2_switch;fillColor=#FAFAFA;strokeColor=#005073;" parent="1" vertex="1">
          <mxGeometry x="650" y="790" width="50" height="50" as="geometry" />
        </mxCell>
        <mxCell id="QYmhKUo41NAajOEhLeO6-23" value="" style="shape=mxgraph.networks2.icon;aspect=fixed;fillColor=#EDEDED;strokeColor=#000000;gradientColor=#5B6163;network2IconShadow=1;network2bgFillColor=none;network2Icon=mxgraph.networks2.pc;network2IconYOffset=-0.0593;network2IconW=0.9999;network2IconH=0.7096;" parent="1" vertex="1">
          <mxGeometry x="80" y="900" width="49.995" height="35.480000000000004" as="geometry" />
        </mxCell>
        <mxCell id="QYmhKUo41NAajOEhLeO6-24" value="" style="shape=mxgraph.networks2.icon;aspect=fixed;fillColor=#EDEDED;strokeColor=#000000;gradientColor=#5B6163;network2IconShadow=1;network2bgFillColor=none;network2Icon=mxgraph.networks2.pc;network2IconYOffset=-0.0593;network2IconW=0.9999;network2IconH=0.7096;" parent="1" vertex="1">
          <mxGeometry x="210.01" y="900" width="49.995" height="35.480000000000004" as="geometry" />
        </mxCell>
        <mxCell id="QYmhKUo41NAajOEhLeO6-25" value="" style="shape=mxgraph.networks2.icon;aspect=fixed;fillColor=#EDEDED;strokeColor=#000000;gradientColor=#5B6163;network2IconShadow=1;network2bgFillColor=none;network2Icon=mxgraph.networks2.pc;network2IconYOffset=-0.0593;network2IconW=0.9999;network2IconH=0.7096;" parent="1" vertex="1">
          <mxGeometry x="510" y="900" width="49.995" height="35.480000000000004" as="geometry" />
        </mxCell>
        <mxCell id="QYmhKUo41NAajOEhLeO6-26" value="" style="shape=mxgraph.networks2.icon;aspect=fixed;fillColor=#EDEDED;strokeColor=#000000;gradientColor=#5B6163;network2IconShadow=1;network2bgFillColor=none;network2Icon=mxgraph.networks2.pc;network2IconYOffset=-0.0593;network2IconW=0.9999;network2IconH=0.7096;" parent="1" vertex="1">
          <mxGeometry x="650.01" y="900" width="49.995" height="35.480000000000004" as="geometry" />
        </mxCell>
        <mxCell id="QYmhKUo41NAajOEhLeO6-28" value="" style="ellipse;shape=cloud;whiteSpace=wrap;html=1;points=[[0.07,0.4,0,0,0],[0.13,0.77,0,0,0],[0.16,0.55,0,0,0],[0.25,0.25,0,0,0],[0.31,0.8,0,0,0],[0.55,0.14,0,0,0],[0.55,0.95,0,0,0],[0.72,0.18,0,0,0],[0.8,0.8,0,0,0],[0.875,0.5,0,0,0],[0.88,0.25,0,0,0],[0.96,0.7,0,0,0]];" parent="1" vertex="1">
          <mxGeometry x="383.5" y="230" width="83" height="50" as="geometry" />
        </mxCell>
        <mxCell id="QYmhKUo41NAajOEhLeO6-29" value="" style="sketch=0;outlineConnect=0;fontColor=#232F3E;gradientColor=none;fillColor=#232F3D;strokeColor=none;dashed=0;verticalLabelPosition=bottom;verticalAlign=top;align=center;html=1;fontSize=12;fontStyle=0;aspect=fixed;pointerEvents=1;shape=mxgraph.aws4.traditional_server;points=[[0.98,0.5,0,0,0]];" parent="1" vertex="1">
          <mxGeometry x="95.38" y="340" width="34.62" height="60" as="geometry" />
        </mxCell>
        <mxCell id="QYmhKUo41NAajOEhLeO6-30" value="" style="sketch=0;outlineConnect=0;fontColor=#232F3E;gradientColor=none;fillColor=#232F3D;strokeColor=none;dashed=0;verticalLabelPosition=bottom;verticalAlign=top;align=center;html=1;fontSize=12;fontStyle=0;aspect=fixed;pointerEvents=1;shape=mxgraph.aws4.traditional_server;" parent="1" vertex="1">
          <mxGeometry x="95.38" y="470" width="34.62" height="60" as="geometry" />
        </mxCell>
        <mxCell id="QYmhKUo41NAajOEhLeO6-31" style="edgeStyle=orthogonalEdgeStyle;rounded=0;orthogonalLoop=1;jettySize=auto;html=1;exitX=0.015;exitY=0.015;exitDx=0;exitDy=0;exitPerimeter=0;entryX=0.4;entryY=0.32;entryDx=0;entryDy=0;entryPerimeter=0;" parent="1" source="QYmhKUo41NAajOEhLeO6-15" target="QYmhKUo41NAajOEhLeO6-15" edge="1">
          <mxGeometry relative="1" as="geometry" />
        </mxCell>
        <mxCell id="QYmhKUo41NAajOEhLeO6-36" style="edgeStyle=orthogonalEdgeStyle;rounded=0;orthogonalLoop=1;jettySize=auto;html=1;exitX=0.74;exitY=0;exitDx=0;exitDy=-1;exitPerimeter=0;entryX=0.5;entryY=1;entryDx=0;entryDy=0;entryPerimeter=0;curved=1;endArrow=none;startFill=0;" parent="1" source="QYmhKUo41NAajOEhLeO6-14" target="QYmhKUo41NAajOEhLeO6-2" edge="1">
          <mxGeometry relative="1" as="geometry" />
        </mxCell>
        <mxCell id="QYmhKUo41NAajOEhLeO6-42" style="edgeStyle=orthogonalEdgeStyle;rounded=0;orthogonalLoop=1;jettySize=auto;html=1;exitX=0.5;exitY=0;exitDx=0;exitDy=0;exitPerimeter=0;entryX=0.13;entryY=0.77;entryDx=0;entryDy=0;entryPerimeter=0;curved=1;dashed=1;endArrow=none;startFill=0;" parent="1" source="QYmhKUo41NAajOEhLeO6-1" target="QYmhKUo41NAajOEhLeO6-28" edge="1">
          <mxGeometry relative="1" as="geometry">
            <Array as="points">
              <mxPoint x="355" y="290" />
              <mxPoint x="394" y="290" />
            </Array>
          </mxGeometry>
        </mxCell>
        <mxCell id="QYmhKUo41NAajOEhLeO6-43" style="edgeStyle=orthogonalEdgeStyle;rounded=0;orthogonalLoop=1;jettySize=auto;html=1;exitX=0.5;exitY=0;exitDx=0;exitDy=0;exitPerimeter=0;entryX=0.8;entryY=0.8;entryDx=0;entryDy=0;entryPerimeter=0;curved=1;endArrow=none;startFill=0;dashed=1;" parent="1" source="QYmhKUo41NAajOEhLeO6-2" target="QYmhKUo41NAajOEhLeO6-28" edge="1">
          <mxGeometry relative="1" as="geometry">
            <Array as="points">
              <mxPoint x="450" y="300" />
            </Array>
          </mxGeometry>
        </mxCell>
        <mxCell id="QYmhKUo41NAajOEhLeO6-46" style="edgeStyle=orthogonalEdgeStyle;rounded=0;orthogonalLoop=1;jettySize=auto;html=1;exitX=0.07;exitY=0.4;exitDx=0;exitDy=0;exitPerimeter=0;entryX=0.5;entryY=1;entryDx=0;entryDy=0;entryPerimeter=0;dashed=1;endArrow=none;startFill=0;curved=1;" parent="1" source="QYmhKUo41NAajOEhLeO6-28" target="QYmhKUo41NAajOEhLeO6-6" edge="1">
          <mxGeometry relative="1" as="geometry" />
        </mxCell>
        <mxCell id="QYmhKUo41NAajOEhLeO6-47" style="edgeStyle=orthogonalEdgeStyle;rounded=0;orthogonalLoop=1;jettySize=auto;html=1;exitX=0.88;exitY=0.25;exitDx=0;exitDy=0;exitPerimeter=0;entryX=0.5;entryY=1;entryDx=0;entryDy=0;entryPerimeter=0;curved=1;endArrow=none;startFill=0;dashed=1;" parent="1" source="QYmhKUo41NAajOEhLeO6-28" target="QYmhKUo41NAajOEhLeO6-8" edge="1">
          <mxGeometry relative="1" as="geometry" />
        </mxCell>
        <mxCell id="QYmhKUo41NAajOEhLeO6-48" style="edgeStyle=orthogonalEdgeStyle;rounded=0;orthogonalLoop=1;jettySize=auto;html=1;exitX=0.55;exitY=0.14;exitDx=0;exitDy=0;exitPerimeter=0;entryX=0.5;entryY=1;entryDx=0;entryDy=0;entryPerimeter=0;curved=1;endArrow=none;startFill=0;dashed=1;" parent="1" source="QYmhKUo41NAajOEhLeO6-28" target="QYmhKUo41NAajOEhLeO6-7" edge="1">
          <mxGeometry relative="1" as="geometry" />
        </mxCell>
        <mxCell id="QYmhKUo41NAajOEhLeO6-53" style="edgeStyle=orthogonalEdgeStyle;rounded=0;orthogonalLoop=1;jettySize=auto;html=1;exitX=1;exitY=0.5;exitDx=0;exitDy=0;exitPerimeter=0;entryX=0.5;entryY=0;entryDx=0;entryDy=0;entryPerimeter=0;curved=1;endArrow=none;startFill=0;" parent="1" source="QYmhKUo41NAajOEhLeO6-5" target="QYmhKUo41NAajOEhLeO6-17" edge="1">
          <mxGeometry relative="1" as="geometry" />
        </mxCell>
        <mxCell id="QYmhKUo41NAajOEhLeO6-57" style="edgeStyle=orthogonalEdgeStyle;rounded=0;orthogonalLoop=1;jettySize=auto;html=1;exitX=0.25;exitY=1;exitDx=0;exitDy=0;exitPerimeter=0;entryX=0.5;entryY=0;entryDx=0;entryDy=0;entryPerimeter=0;curved=1;endArrow=none;startFill=0;" parent="1" source="QYmhKUo41NAajOEhLeO6-17" target="QYmhKUo41NAajOEhLeO6-20" edge="1">
          <mxGeometry relative="1" as="geometry" />
        </mxCell>
        <mxCell id="QYmhKUo41NAajOEhLeO6-58" style="edgeStyle=orthogonalEdgeStyle;rounded=0;orthogonalLoop=1;jettySize=auto;html=1;exitX=0.75;exitY=1;exitDx=0;exitDy=0;exitPerimeter=0;entryX=0.5;entryY=0;entryDx=0;entryDy=0;entryPerimeter=0;endArrow=none;startFill=0;curved=1;" parent="1" source="QYmhKUo41NAajOEhLeO6-17" target="QYmhKUo41NAajOEhLeO6-21" edge="1">
          <mxGeometry relative="1" as="geometry" />
        </mxCell>
        <mxCell id="QYmhKUo41NAajOEhLeO6-60" style="edgeStyle=orthogonalEdgeStyle;rounded=0;orthogonalLoop=1;jettySize=auto;html=1;exitX=0.25;exitY=1;exitDx=0;exitDy=0;exitPerimeter=0;entryX=0.5;entryY=0;entryDx=0;entryDy=0;entryPerimeter=0;curved=1;endArrow=none;startFill=0;" parent="1" source="QYmhKUo41NAajOEhLeO6-16" target="QYmhKUo41NAajOEhLeO6-18" edge="1">
          <mxGeometry relative="1" as="geometry" />
        </mxCell>
        <mxCell id="QYmhKUo41NAajOEhLeO6-61" style="edgeStyle=orthogonalEdgeStyle;rounded=0;orthogonalLoop=1;jettySize=auto;html=1;exitX=0.75;exitY=1;exitDx=0;exitDy=0;exitPerimeter=0;entryX=0.5;entryY=0;entryDx=0;entryDy=0;entryPerimeter=0;endArrow=none;startFill=0;curved=1;" parent="1" source="QYmhKUo41NAajOEhLeO6-16" target="QYmhKUo41NAajOEhLeO6-19" edge="1">
          <mxGeometry relative="1" as="geometry" />
        </mxCell>
        <mxCell id="QYmhKUo41NAajOEhLeO6-64" style="edgeStyle=orthogonalEdgeStyle;rounded=0;orthogonalLoop=1;jettySize=auto;html=1;exitX=1;exitY=0.25;exitDx=0;exitDy=0;exitPerimeter=0;entryX=0;entryY=0.25;entryDx=0;entryDy=0;entryPerimeter=0;endArrow=none;startFill=0;dashed=1;dashPattern=8 8;" parent="1" source="QYmhKUo41NAajOEhLeO6-16" target="QYmhKUo41NAajOEhLeO6-17" edge="1">
          <mxGeometry relative="1" as="geometry" />
        </mxCell>
        <mxCell id="QYmhKUo41NAajOEhLeO6-65" style="edgeStyle=orthogonalEdgeStyle;rounded=0;orthogonalLoop=1;jettySize=auto;html=1;exitX=1;exitY=0.5;exitDx=0;exitDy=0;exitPerimeter=0;entryX=0;entryY=0.5;entryDx=0;entryDy=0;entryPerimeter=0;dashed=1;dashPattern=8 8;endArrow=none;startFill=0;" parent="1" source="QYmhKUo41NAajOEhLeO6-16" target="QYmhKUo41NAajOEhLeO6-17" edge="1">
          <mxGeometry relative="1" as="geometry" />
        </mxCell>
        <mxCell id="QYmhKUo41NAajOEhLeO6-67" style="edgeStyle=orthogonalEdgeStyle;rounded=0;orthogonalLoop=1;jettySize=auto;html=1;exitX=1;exitY=0.75;exitDx=0;exitDy=0;exitPerimeter=0;entryX=0;entryY=0.75;entryDx=0;entryDy=0;entryPerimeter=0;dashed=1;dashPattern=8 8;endArrow=none;startFill=0;" parent="1" source="QYmhKUo41NAajOEhLeO6-16" target="QYmhKUo41NAajOEhLeO6-17" edge="1">
          <mxGeometry relative="1" as="geometry" />
        </mxCell>
        <mxCell id="QYmhKUo41NAajOEhLeO6-68" style="edgeStyle=orthogonalEdgeStyle;rounded=0;orthogonalLoop=1;jettySize=auto;html=1;exitX=0;exitY=0.5;exitDx=0;exitDy=0;exitPerimeter=0;entryX=0.5;entryY=0;entryDx=0;entryDy=0;entryPerimeter=0;curved=1;endArrow=none;startFill=0;" parent="1" source="QYmhKUo41NAajOEhLeO6-4" target="QYmhKUo41NAajOEhLeO6-16" edge="1">
          <mxGeometry relative="1" as="geometry" />
        </mxCell>
        <mxCell id="QYmhKUo41NAajOEhLeO6-69" style="edgeStyle=orthogonalEdgeStyle;rounded=0;orthogonalLoop=1;jettySize=auto;html=1;exitX=0.26;exitY=1;exitDx=0;exitDy=0;exitPerimeter=0;entryX=1;entryY=0.5;entryDx=0;entryDy=0;entryPerimeter=0;endArrow=none;startFill=0;curved=1;" parent="1" source="QYmhKUo41NAajOEhLeO6-14" target="QYmhKUo41NAajOEhLeO6-4" edge="1">
          <mxGeometry relative="1" as="geometry" />
        </mxCell>
        <mxCell id="QYmhKUo41NAajOEhLeO6-70" style="edgeStyle=orthogonalEdgeStyle;rounded=0;orthogonalLoop=1;jettySize=auto;html=1;exitX=0.74;exitY=1;exitDx=0;exitDy=0;exitPerimeter=0;entryX=0;entryY=0.5;entryDx=0;entryDy=0;entryPerimeter=0;curved=1;endArrow=none;startFill=0;" parent="1" source="QYmhKUo41NAajOEhLeO6-14" target="QYmhKUo41NAajOEhLeO6-5" edge="1">
          <mxGeometry relative="1" as="geometry" />
        </mxCell>
        <mxCell id="QYmhKUo41NAajOEhLeO6-75" value="" style="shape=mxgraph.networks2.icon;aspect=fixed;fillColor=#EDEDED;strokeColor=#000000;gradientColor=#5B6163;network2IconShadow=1;network2bgFillColor=none;network2Icon=mxgraph.networks2.pc;network2IconYOffset=-0.0593;network2IconW=0.9999;network2IconH=0.7096;" parent="1" vertex="1">
          <mxGeometry x="405.01" y="40" width="49.995" height="35.480000000000004" as="geometry" />
        </mxCell>
        <mxCell id="QYmhKUo41NAajOEhLeO6-76" style="edgeStyle=orthogonalEdgeStyle;rounded=0;orthogonalLoop=1;jettySize=auto;html=1;exitX=0.5;exitY=0;exitDx=0;exitDy=0;exitPerimeter=0;entryX=0.5;entryY=1.043;entryDx=0;entryDy=0;entryPerimeter=0;endArrow=none;startFill=0;" parent="1" source="QYmhKUo41NAajOEhLeO6-7" target="QYmhKUo41NAajOEhLeO6-75" edge="1">
          <mxGeometry relative="1" as="geometry" />
        </mxCell>
        <mxCell id="nFP74qU7jgvlYta2bDjf-1" value="PC3" style="text;html=1;align=center;verticalAlign=middle;resizable=0;points=[];autosize=1;strokeColor=none;fillColor=none;" vertex="1" parent="1">
          <mxGeometry x="509.99" y="935.48" width="50" height="30" as="geometry" />
        </mxCell>
        <mxCell id="nFP74qU7jgvlYta2bDjf-2" value="PC4" style="text;html=1;align=center;verticalAlign=middle;resizable=0;points=[];autosize=1;strokeColor=none;fillColor=none;" vertex="1" parent="1">
          <mxGeometry x="650" y="935.48" width="50" height="30" as="geometry" />
        </mxCell>
        <mxCell id="nFP74qU7jgvlYta2bDjf-3" value="PC2" style="text;html=1;align=center;verticalAlign=middle;resizable=0;points=[];autosize=1;strokeColor=none;fillColor=none;" vertex="1" parent="1">
          <mxGeometry x="210.01" y="935.48" width="50" height="30" as="geometry" />
        </mxCell>
        <mxCell id="nFP74qU7jgvlYta2bDjf-4" value="PC1" style="text;html=1;align=center;verticalAlign=middle;resizable=0;points=[];autosize=1;strokeColor=none;fillColor=none;" vertex="1" parent="1">
          <mxGeometry x="79.99" y="935.48" width="50" height="30" as="geometry" />
        </mxCell>
        <mxCell id="nFP74qU7jgvlYta2bDjf-5" value="ASW1" style="text;html=1;align=center;verticalAlign=middle;resizable=0;points=[];autosize=1;glass=0;fillColor=none;fontStyle=0;labelBackgroundColor=default;" vertex="1" parent="1">
          <mxGeometry x="75" y="838" width="60" height="30" as="geometry" />
        </mxCell>
        <mxCell id="nFP74qU7jgvlYta2bDjf-7" value="" style="edgeStyle=orthogonalEdgeStyle;rounded=0;orthogonalLoop=1;jettySize=auto;html=1;exitX=0.5;exitY=1;exitDx=0;exitDy=0;exitPerimeter=0;endArrow=none;startFill=0;" edge="1" parent="1" source="QYmhKUo41NAajOEhLeO6-19" target="nFP74qU7jgvlYta2bDjf-6">
          <mxGeometry relative="1" as="geometry">
            <mxPoint x="235" y="840" as="sourcePoint" />
            <mxPoint x="235" y="900" as="targetPoint" />
          </mxGeometry>
        </mxCell>
        <mxCell id="nFP74qU7jgvlYta2bDjf-6" value="ASW2" style="text;html=1;align=center;verticalAlign=middle;resizable=0;points=[];autosize=1;strokeColor=none;fillColor=none;labelBackgroundColor=default;" vertex="1" parent="1">
          <mxGeometry x="205.01" y="840" width="60" height="30" as="geometry" />
        </mxCell>
        <mxCell id="nFP74qU7jgvlYta2bDjf-10" value="" style="edgeStyle=orthogonalEdgeStyle;rounded=0;orthogonalLoop=1;jettySize=auto;html=1;exitX=0.5;exitY=1;exitDx=0;exitDy=0;exitPerimeter=0;endArrow=none;startFill=0;" edge="1" parent="1" source="QYmhKUo41NAajOEhLeO6-20" target="nFP74qU7jgvlYta2bDjf-9">
          <mxGeometry relative="1" as="geometry">
            <mxPoint x="535" y="840" as="sourcePoint" />
            <mxPoint x="535" y="900" as="targetPoint" />
          </mxGeometry>
        </mxCell>
        <mxCell id="nFP74qU7jgvlYta2bDjf-9" value="ASW3" style="text;html=1;align=center;verticalAlign=middle;resizable=0;points=[];autosize=1;strokeColor=none;fillColor=none;labelBackgroundColor=default;" vertex="1" parent="1">
          <mxGeometry x="504.99" y="838" width="60" height="30" as="geometry" />
        </mxCell>
        <mxCell id="nFP74qU7jgvlYta2bDjf-12" value="" style="edgeStyle=orthogonalEdgeStyle;rounded=0;orthogonalLoop=1;jettySize=auto;html=1;exitX=0.5;exitY=1;exitDx=0;exitDy=0;exitPerimeter=0;endArrow=none;startFill=0;" edge="1" parent="1" source="QYmhKUo41NAajOEhLeO6-21" target="nFP74qU7jgvlYta2bDjf-11">
          <mxGeometry relative="1" as="geometry">
            <mxPoint x="675" y="840" as="sourcePoint" />
            <mxPoint x="675" y="900" as="targetPoint" />
          </mxGeometry>
        </mxCell>
        <mxCell id="nFP74qU7jgvlYta2bDjf-11" value="ASW4" style="text;html=1;align=center;verticalAlign=middle;resizable=0;points=[];autosize=1;strokeColor=none;fillColor=none;labelBackgroundColor=default;" vertex="1" parent="1">
          <mxGeometry x="645" y="838" width="60" height="30" as="geometry" />
        </mxCell>
        <mxCell id="nFP74qU7jgvlYta2bDjf-13" value="CSW2" style="text;html=1;align=center;verticalAlign=middle;resizable=0;points=[];autosize=1;strokeColor=none;fillColor=none;labelBackgroundColor=default;" vertex="1" parent="1">
          <mxGeometry x="585" y="720" width="60" height="30" as="geometry" />
        </mxCell>
        <mxCell id="nFP74qU7jgvlYta2bDjf-14" value="CSW1" style="text;html=1;align=center;verticalAlign=middle;resizable=0;points=[];autosize=1;strokeColor=none;fillColor=none;labelBackgroundColor=default;" vertex="1" parent="1">
          <mxGeometry x="145" y="720" width="60" height="30" as="geometry" />
        </mxCell>
        <mxCell id="nFP74qU7jgvlYta2bDjf-15" value="R2" style="text;html=1;align=center;verticalAlign=middle;resizable=0;points=[];autosize=1;strokeColor=none;fillColor=none;" vertex="1" parent="1">
          <mxGeometry x="495" y="590" width="40" height="30" as="geometry" />
        </mxCell>
        <mxCell id="nFP74qU7jgvlYta2bDjf-16" value="R1" style="text;html=1;align=center;verticalAlign=middle;resizable=0;points=[];autosize=1;strokeColor=none;fillColor=none;" vertex="1" parent="1">
          <mxGeometry x="285" y="590" width="40" height="30" as="geometry" />
        </mxCell>
        <mxCell id="nFP74qU7jgvlYta2bDjf-17" value="DMZ-SW" style="text;html=1;align=center;verticalAlign=middle;resizable=0;points=[];autosize=1;strokeColor=none;fillColor=none;labelBackgroundColor=default;" vertex="1" parent="1">
          <mxGeometry x="210.01" y="462" width="70" height="30" as="geometry" />
        </mxCell>
        <mxCell id="nFP74qU7jgvlYta2bDjf-18" value="SRV2" style="text;html=1;align=center;verticalAlign=middle;resizable=0;points=[];autosize=1;strokeColor=none;fillColor=none;" vertex="1" parent="1">
          <mxGeometry x="87.69" y="528" width="50" height="30" as="geometry" />
        </mxCell>
        <mxCell id="nFP74qU7jgvlYta2bDjf-19" value="Syslog, SNMP, Netflow" style="text;html=1;align=center;verticalAlign=middle;resizable=0;points=[];autosize=1;strokeColor=none;fillColor=none;" vertex="1" parent="1">
          <mxGeometry x="37.69" y="550" width="150" height="30" as="geometry" />
        </mxCell>
        <mxCell id="nFP74qU7jgvlYta2bDjf-20" value="SRV1" style="text;html=1;align=center;verticalAlign=middle;resizable=0;points=[];autosize=1;strokeColor=none;fillColor=none;labelBackgroundColor=default;" vertex="1" parent="1">
          <mxGeometry x="87.69" y="400" width="50" height="30" as="geometry" />
        </mxCell>
        <mxCell id="nFP74qU7jgvlYta2bDjf-23" value="RADIUS, DHCP, DNS" style="text;html=1;align=center;verticalAlign=middle;resizable=0;points=[];autosize=1;strokeColor=none;fillColor=none;labelBackgroundColor=default;" vertex="1" parent="1">
          <mxGeometry x="47.69" y="310" width="140" height="30" as="geometry" />
        </mxCell>
        <mxCell id="nFP74qU7jgvlYta2bDjf-25" value="FW" style="text;html=1;align=center;verticalAlign=middle;resizable=0;points=[];autosize=1;strokeColor=none;fillColor=none;labelBackgroundColor=default;" vertex="1" parent="1">
          <mxGeometry x="402" y="454" width="40" height="30" as="geometry" />
        </mxCell>
        <mxCell id="nFP74qU7jgvlYta2bDjf-27" value="ISP2" style="text;html=1;align=center;verticalAlign=middle;resizable=0;points=[];autosize=1;strokeColor=none;fillColor=none;labelBackgroundColor=default;" vertex="1" parent="1">
          <mxGeometry x="466.5" y="350" width="50" height="30" as="geometry" />
        </mxCell>
        <mxCell id="nFP74qU7jgvlYta2bDjf-29" value="ISP1" style="text;html=1;align=center;verticalAlign=middle;resizable=0;points=[];autosize=1;strokeColor=none;fillColor=none;labelBackgroundColor=default;" vertex="1" parent="1">
          <mxGeometry x="330" y="350" width="50" height="30" as="geometry" />
        </mxCell>
        <mxCell id="nFP74qU7jgvlYta2bDjf-30" style="edgeStyle=orthogonalEdgeStyle;rounded=0;orthogonalLoop=1;jettySize=auto;html=1;exitX=0.26;exitY=0;exitDx=0;exitDy=-1;exitPerimeter=0;entryX=0.5;entryY=0.133;entryDx=0;entryDy=0;entryPerimeter=0;endArrow=none;startFill=0;curved=1;" edge="1" parent="1" source="QYmhKUo41NAajOEhLeO6-14" target="nFP74qU7jgvlYta2bDjf-29">
          <mxGeometry relative="1" as="geometry">
            <Array as="points">
              <mxPoint x="414" y="390" />
              <mxPoint x="355" y="390" />
            </Array>
          </mxGeometry>
        </mxCell>
        <mxCell id="nFP74qU7jgvlYta2bDjf-31" value="Internet" style="text;html=1;align=center;verticalAlign=middle;resizable=0;points=[];autosize=1;strokeColor=none;fillColor=none;labelBackgroundColor=default;" vertex="1" parent="1">
          <mxGeometry x="395" y="240" width="60" height="30" as="geometry" />
        </mxCell>
        <mxCell id="nFP74qU7jgvlYta2bDjf-32" value="BR3-RTR" style="text;html=1;align=center;verticalAlign=middle;resizable=0;points=[];autosize=1;strokeColor=none;fillColor=none;labelBackgroundColor=default;" vertex="1" parent="1">
          <mxGeometry x="490" y="220" width="80" height="30" as="geometry" />
        </mxCell>
        <mxCell id="nFP74qU7jgvlYta2bDjf-33" value="BR2-RTR" style="text;html=1;align=center;verticalAlign=middle;resizable=0;points=[];autosize=1;strokeColor=none;fillColor=none;labelBackgroundColor=default;" vertex="1" parent="1">
          <mxGeometry x="275" y="220" width="80" height="30" as="geometry" />
        </mxCell>
        <mxCell id="nFP74qU7jgvlYta2bDjf-34" value="BR1-RTR" style="text;html=1;align=center;verticalAlign=middle;resizable=0;points=[];autosize=1;strokeColor=none;fillColor=none;labelBackgroundColor=default;" vertex="1" parent="1">
          <mxGeometry x="390" y="170" width="80" height="30" as="geometry" />
        </mxCell>
        <mxCell id="nFP74qU7jgvlYta2bDjf-35" value="BR1-PC" style="text;html=1;align=center;verticalAlign=middle;resizable=0;points=[];autosize=1;strokeColor=none;fillColor=none;labelBackgroundColor=default;" vertex="1" parent="1">
          <mxGeometry x="396.5" y="75.48" width="70" height="30" as="geometry" />
        </mxCell>
      </root>
    </mxGraphModel>
  </diagram>
</mxfile>
